{"asset":{"version":"2.0","generator":"Blockbench 4.12.4 glTF exporter"},"scenes":[{"nodes":[5],"name":"blockbench_export"}],"scene":0,"nodes":[{"name":"cylinder","mesh":0},{"translation":[0,0.24999999999999997,0],"name":"beveled_cuboid","mesh":1},{"rotation":[-1,0,0,6.123233995736766e-17],"translation":[0,0.375,0],"name":"pyramid","mesh":2},{"name":"torus","mesh":3},{"translation":[0,0.0375,0],"name":"bone","children":[0,1,2,3]},{"children":[4]}],"bufferViews":[{"buffer":0,"byteOffset":0,"byteLength":1200,"target":34962,"byteStride":12},{"buffer":0,"byteOffset":1200,"byteLength":1200,"target":34962,"byteStride":12},{"buffer":0,"byteOffset":2400,"byteLength":800,"target":34962,"byteStride":8},{"buffer":0,"byteOffset":3200,"byteLength":240,"target":34963},{"buffer":0,"byteOffset":3440,"byteLength":1008,"target":34962,"byteStride":12},{"buffer":0,"byteOffset":4448,"byteLength":1008,"target":34962,"byteStride":12},{"buffer":0,"byteOffset":5456,"byteLength":672,"target":34962,"byteStride":8},{"buffer":0,"byteOffset":6128,"byteLength":216,"target":34963},{"buffer":0,"byteOffset":6344,"byteLength":192,"target":34962,"byteStride":12},{"buffer":0,"byteOffset":6536,"byteLength":192,"target":34962,"byteStride":12},{"buffer":0,"byteOffset":6728,"byteLength":128,"target":34962,"byteStride":8},{"buffer":0,"byteOffset":6856,"byteLength":36,"target":34963},{"buffer":0,"byteOffset":6892,"byteLength":1920,"target":34962,"byteStride":12},{"buffer":0,"byteOffset":8812,"byteLength":1920,"target":34962,"byteStride":12},{"buffer":0,"byteOffset":10732,"byteLength":1280,"target":34962,"byteStride":8},{"buffer":0,"byteOffset":12012,"byteLength":480,"target":34963}],"buffers":[{"byteLength":12492,"uri":"data:application/octet-stream;base64,"}],"accessors":[{"bufferView":0,"componentType":5126,"count":100,"max":[0.03285812586545944,1,0.03125],"min":[-0.03285812586545944,0,-0.03125],"type":"VEC3"},{"bufferView":1,"componentType":5126,"count":100,"max":[0.9510625600814819,1,1],"min":[-0.9510625600814819,-1,-1],"type":"VEC3"},{"bufferView":2,"componentType":5126,"count":100,"max":[0.4851781129837036,0.8125],"min":[0.2503906190395355,0.125],"type":"VEC2"},{"bufferView":3,"componentType":5123,"count":120,"max":[99],"min":[0],"type":"SCALAR"},{"bufferView":4,"componentType":5126,"count":84,"max":[0.046875,1,0.09375],"min":[-0.046875,0,-0.09375],"type":"VEC3"},{"bufferView":5,"componentType":5126,"count":84,"max":[1,0.31799936294555664,0.4472135901451111],"min":[-0.8944271802902222,-0.31799936294555664,-0.4472135901451111],"type":"VEC3"},{"bufferView":6,"componentType":5126,"count":84,"max":[0.23990625143051147,0.5068437457084656],"min":[0,0],"type":"VEC2"},{"bufferView":7,"componentType":5123,"count":108,"max":[83],"min":[0],"type":"SCALAR"},{"bufferView":8,"componentType":5126,"count":16,"max":[0.0625,0.25,0.125],"min":[-0.0625,0,-0.125],"type":"VEC3"},{"bufferView":9,"componentType":5126,"count":16,"max":[0.9701424837112427,0.4472135901451111,0.8944271802902222],"min":[-0.9701424837112427,-1,-0.8944271802902222],"type":"VEC3"},{"bufferView":10,"componentType":5126,"count":16,"max":[0.4375,0.4375],"min":[0.2562665641307831,0],"type":"VEC2"},{"bufferView":11,"componentType":5123,"count":18,"max":[15],"min":[0],"type":"SCALAR"},{"bufferView":12,"componentType":5126,"count":160,"max":[0.06571625173091888,0.03285812586545944,0.0625],"min":[-0.06571625173091888,-0.03285812586545944,-0.0625],"type":"VEC3"},{"bufferView":13,"componentType":5126,"count":160,"max":[1,0.6891543865203857,0.724616289138794],"min":[-0.6891623139381409,-0.6891543865203857,-0.724616289138794],"type":"VEC3"},{"bufferView":14,"componentType":5126,"count":160,"max":[0.5,0.44715625047683716],"min":[0.03397798165678978,0],"type":"VEC2"},{"bufferView":15,"componentType":5123,"count":240,"max":[159],"min":[0],"type":"SCALAR"}],"materials":[{"pbrMetallicRoughness":{"metallicFactor":0,"roughnessFactor":1,"baseColorTexture":{"index":0}},"alphaMode":"MASK","alphaCutoff":0.05,"doubleSided":true}],"textures":[{"sampler":0,"source":0,"name":"grimiumSwordTexture"}],"samplers":[{"magFilter":9728,"minFilter":9728,"wrapS":33071,"wrapT":33071}],"images":[{"mimeType":"image/png","uri":"data:image/png;base64,"}],"meshes":[{"primitives":[{"mode":4,"attributes":{"POSITION":0,"NORMAL":1,"TEXCOORD_0":2},"indices":3,"material":0}]},{"primitives":[{"mode":4,"attributes":{"POSITION":4,"NORMAL":5,"TEXCOORD_0":6},"indices":7,"material":0}]},{"primitives":[{"mode":4,"attributes":{"POSITION":8,"NORMAL":9,"TEXCOORD_0":10},"indices":11,"material":0}]},{"primitives":[{"mode":4,"attributes":{"POSITION":12,"NORMAL":13,"TEXCOORD_0":14},"indices":15,"material":0}]}]}